# xmcd CD database file
# Copyright (C) 1993-2000  Ti Kan
#
# Track frame offsets:
#	150
#	14971
#	37217
#	60484
#	80852
#	105162
#	124200
#	139597
#	154633
#	180448
#
# Disc length: 2641 seconds
#
# Revision: 1
# Processed by: cddbd v1.5.2PL0 Copyright (c) Steve Scherf et al.
# Submitted via: xmcd 2.6 PL0
#
DISCID=830a4f0a
DTITLE=Earl Thomas - Soulshine
DYEAR=1900
DGENRE=
TTITLE0=Just another day
TTITLE1=Feelin' all blue
TTITLE2=One more day
TTITLE3=Soulshine
TTITLE4=Last train to Paris
TTITLE5=Lead a horse to water
TTITLE6=Don't be lyin'
TTITLE7=In the heat of the night
TTITLE8=Git me some
TTITLE9=I'll love you no less
EXTD=
EXTT0=
EXTT1=
EXTT2=
EXTT3=
EXTT4=
EXTT5=
EXTT6=
EXTT7=
EXTT8=
EXTT9=
PLAYORDER=
